<svg width="40" height="40" viewBox="0 0 40 40" fill="none" xmlns="http://www.w3.org/2000/svg">
<path d="M34.5469 36.6906L24.0375 19.9031L33.3282 5.89683C33.4688 5.68121 33.4844 5.40621 33.3594 5.17808C33.3002 5.06634 33.2115 4.97292 33.103 4.90792C32.9945 4.84293 32.8703 4.80884 32.7438 4.80933H25.1063C24.875 4.80933 24.6532 4.92808 24.525 5.12183L16.0907 17.8375V5.51246C16.0907 5.12496 15.775 4.81246 15.3907 4.81246H8.54692C8.15942 4.81246 7.84692 5.12496 7.84692 5.51246V37.0625C7.84692 37.45 8.15942 37.7625 8.54692 37.7625H15.3907C15.775 37.7625 16.0907 37.45 16.0907 37.0625V22.0468L25.7219 37.4343C25.85 37.6375 26.075 37.7625 26.3157 37.7625H33.9532C34.2063 37.7625 34.4438 37.625 34.5657 37.4C34.6875 37.1781 34.6813 36.9062 34.5469 36.6906Z" fill="white"/>
</svg>
